<svg xmlns="http://www.w3.org/2000/svg" xmlns:xlink="http://www.w3.org/1999/xlink" width="100" zoomAndPan="magnify" viewBox="0 0 75 74.999997" height="100" preserveAspectRatio="xMidYMid meet" version="1.0"><defs><clipPath id="id1"><path d="M 5.105469 11.179688 L 69.605469 11.179688 L 69.605469 63.679688 L 5.105469 63.679688 Z M 5.105469 11.179688 " clip-rule="nonzero"/></clipPath><clipPath id="id2"><path d="M 61.816406 40.089844 C 61.816406 37.933594 63.5625 36.195312 65.714844 36.195312 C 67.871094 36.195312 69.605469 37.941406 69.605469 40.089844 C 69.605469 42.25 67.863281 43.988281 65.714844 43.988281 C 65.042969 43.988281 64.402344 43.816406 63.851562 43.515625 L 61.042969 47.65625 C 61.707031 48.238281 62.128906 49.089844 62.128906 50.054688 C 62.128906 51.8125 60.703125 53.238281 58.949219 53.238281 C 57.195312 53.238281 55.773438 51.8125 55.773438 50.054688 C 55.773438 48.851562 56.445312 47.796875 57.4375 47.261719 L 56.644531 45.253906 C 56.464844 45.292969 56.273438 45.3125 56.082031 45.3125 C 54.6875 45.3125 53.566406 44.179688 53.566406 42.792969 C 53.566406 41.398438 54.699219 40.261719 56.082031 40.261719 C 56.3125 40.261719 56.542969 40.292969 56.753906 40.351562 L 58.386719 36.71875 C 57.988281 36.40625 57.726562 35.921875 57.726562 35.382812 C 57.726562 34.445312 58.476562 33.695312 59.410156 33.695312 C 59.820312 33.695312 60.191406 33.835938 60.484375 34.085938 L 63.410156 31.855469 C 63.199219 31.472656 63.078125 31.023438 63.078125 30.550781 C 63.078125 29.765625 63.421875 29.054688 63.953125 28.5625 L 62.148438 25.898438 C 61.808594 26.058594 61.425781 26.152344 61.023438 26.152344 C 60.082031 26.152344 59.261719 25.648438 58.808594 24.90625 L 56.0625 26.058594 C 56.0625 26.101562 56.074219 26.140625 56.074219 26.171875 C 56.074219 26.804688 55.613281 27.324219 55.011719 27.425781 L 54.640625 30.097656 C 55.5625 30.390625 56.222656 31.253906 56.222656 32.265625 C 56.222656 33.523438 55.199219 34.546875 53.945312 34.546875 C 53.105469 34.546875 52.375 34.085938 51.972656 33.402344 L 48.714844 34.609375 C 48.714844 34.617188 48.714844 34.628906 48.714844 34.648438 C 48.714844 35.320312 48.171875 35.863281 47.5 35.863281 C 47.429688 35.863281 47.351562 35.851562 47.28125 35.84375 L 45.625 38.855469 C 45.828125 39.035156 45.996094 39.257812 46.109375 39.507812 L 50.679688 38.542969 C 50.75 37.941406 51.261719 37.46875 51.882812 37.46875 C 52.554688 37.46875 53.09375 38.011719 53.09375 38.683594 C 53.09375 39.308594 52.625 39.820312 52.023438 39.890625 L 50.679688 46.320312 C 52.101562 46.78125 53.125 48.117188 53.125 49.695312 C 53.125 51.652344 51.542969 53.25 49.578125 53.25 C 49.515625 53.25 49.457031 53.25 49.394531 53.25 L 48.863281 56.542969 C 49.347656 56.765625 49.6875 57.257812 49.6875 57.828125 C 49.6875 58.472656 49.265625 59.003906 48.683594 59.183594 L 48.734375 61.675781 C 49.105469 61.816406 49.375 62.1875 49.375 62.609375 C 49.375 63.164062 48.925781 63.613281 48.375 63.613281 C 47.820312 63.613281 47.371094 63.164062 47.371094 62.609375 C 47.371094 62.507812 47.390625 62.410156 47.421875 62.308594 L 45.667969 60.84375 C 45.445312 60.992188 45.175781 61.082031 44.875 61.082031 C 44.101562 61.082031 43.480469 60.460938 43.480469 59.6875 C 43.480469 59.136719 43.800781 58.664062 44.261719 58.433594 L 43.960938 56.765625 C 43.941406 56.765625 43.914062 56.765625 43.890625 56.765625 C 42.488281 56.765625 41.347656 55.621094 41.347656 54.214844 C 41.347656 52.808594 42.488281 51.664062 43.890625 51.664062 C 44.5625 51.664062 45.164062 51.921875 45.617188 52.34375 L 46.589844 51.570312 C 46.238281 51.019531 46.039062 50.375 46.039062 49.671875 C 46.039062 49 46.226562 48.367188 46.558594 47.824219 L 44.074219 45.917969 C 43.882812 46.046875 43.652344 46.128906 43.402344 46.128906 C 43.128906 46.128906 42.878906 46.039062 42.679688 45.886719 L 41.105469 46.980469 C 41.386719 47.492188 41.535156 48.078125 41.535156 48.699219 C 41.535156 50.6875 39.933594 52.296875 37.949219 52.296875 C 36.261719 52.296875 34.859375 51.140625 34.46875 49.574219 L 31.78125 49.945312 C 31.753906 51.21875 30.710938 52.246094 29.425781 52.246094 C 28.125 52.246094 27.070312 51.191406 27.070312 49.882812 C 27.070312 48.578125 28.125 47.523438 29.425781 47.523438 C 29.667969 47.523438 29.898438 47.5625 30.109375 47.625 L 32.976562 41.808594 C 32.242188 41.316406 31.742188 40.511719 31.652344 39.589844 L 29.285156 39.507812 C 29.117188 39.949219 28.695312 40.261719 28.191406 40.261719 C 28.0625 40.261719 27.941406 40.242188 27.824219 40.203125 L 25.925781 42.664062 C 26.519531 43.246094 26.878906 44.050781 26.878906 44.941406 C 26.878906 46.710938 25.445312 48.148438 23.683594 48.148438 C 22.199219 48.148438 20.945312 47.121094 20.585938 45.746094 L 18.390625 46.039062 C 18.347656 47.292969 17.316406 48.308594 16.054688 48.308594 C 14.761719 48.308594 13.71875 47.261719 13.71875 45.96875 C 13.71875 44.742188 14.660156 43.738281 15.863281 43.636719 L 16.074219 41.066406 C 15.652344 40.886719 15.363281 40.464844 15.363281 39.972656 C 15.363281 39.316406 15.894531 38.777344 16.554688 38.777344 C 16.703125 38.777344 16.835938 38.804688 16.964844 38.847656 L 21.445312 33.320312 C 21.335938 33.140625 21.265625 32.921875 21.265625 32.6875 C 21.265625 32.367188 21.394531 32.078125 21.597656 31.867188 L 20.90625 30.519531 C 20.554688 30.648438 20.183594 30.71875 19.792969 30.71875 C 19.230469 30.71875 18.699219 30.570312 18.25 30.320312 L 15.550781 34.066406 C 15.832031 34.375 16.003906 34.796875 16.003906 35.261719 C 16.003906 36.246094 15.199219 37.046875 14.21875 37.046875 C 14.019531 37.046875 13.816406 37.019531 13.636719 36.949219 L 10.820312 41.546875 C 11.460938 42.070312 11.863281 42.863281 11.863281 43.757812 C 11.863281 45.335938 10.589844 46.609375 9.015625 46.609375 C 7.441406 46.609375 6.167969 45.335938 6.167969 43.757812 C 6.167969 42.472656 7.019531 41.386719 8.183594 41.027344 L 7.964844 39.667969 C 7.941406 39.667969 7.933594 39.667969 7.914062 39.667969 C 6.449219 39.667969 5.265625 38.484375 5.265625 37.019531 C 5.265625 35.5625 6.4375 34.375 7.894531 34.367188 L 8.054688 33.191406 C 6.359375 32.78125 5.097656 31.242188 5.097656 29.414062 C 5.097656 27.277344 6.832031 25.539062 8.964844 25.539062 C 10.738281 25.539062 12.242188 26.734375 12.695312 28.371094 L 16.59375 27.675781 C 16.59375 27.617188 16.59375 27.566406 16.59375 27.507812 C 16.59375 26.964844 16.734375 26.453125 16.964844 26 L 14.089844 23.980469 C 13.765625 24.28125 13.335938 24.464844 12.867188 24.464844 C 11.871094 24.464844 11.0625 23.648438 11.0625 22.65625 C 11.0625 21.660156 11.871094 20.847656 12.867188 20.847656 C 13.859375 20.847656 14.667969 21.660156 14.667969 22.65625 C 14.667969 22.90625 14.621094 23.136719 14.53125 23.347656 L 17.40625 25.367188 C 17.816406 24.90625 18.367188 24.5625 18.980469 24.402344 L 18.96875 21.480469 C 17.886719 21.300781 17.066406 20.367188 17.066406 19.230469 C 17.066406 17.976562 18.089844 16.949219 19.339844 16.949219 C 20.082031 16.949219 20.734375 17.300781 21.144531 17.84375 L 24.785156 15.9375 C 24.695312 15.664062 24.644531 15.382812 24.644531 15.082031 C 24.644531 13.644531 25.808594 12.472656 27.25 12.472656 C 28.683594 12.472656 29.859375 13.636719 29.859375 15.082031 C 29.859375 16.035156 29.347656 16.878906 28.574219 17.332031 L 29.777344 20.304688 C 29.96875 20.265625 30.15625 20.234375 30.367188 20.234375 C 30.839844 20.234375 31.289062 20.367188 31.671875 20.597656 L 34.398438 17.28125 C 33.777344 16.640625 33.386719 15.765625 33.386719 14.800781 C 33.386719 12.84375 34.96875 11.246094 36.933594 11.246094 C 38.890625 11.246094 40.484375 12.832031 40.484375 14.800781 C 40.484375 15.675781 40.164062 16.476562 39.640625 17.089844 L 42.347656 19.945312 C 42.507812 19.863281 42.6875 19.824219 42.878906 19.824219 C 42.929688 19.824219 42.980469 19.824219 43.019531 19.832031 L 44.464844 16.710938 C 43.871094 16.296875 43.480469 15.613281 43.480469 14.832031 C 43.480469 13.574219 44.503906 12.550781 45.757812 12.550781 C 47.011719 12.550781 48.03125 13.574219 48.03125 14.832031 C 48.03125 15.113281 47.980469 15.382812 47.890625 15.625 L 50.1875 16.960938 C 50.757812 16.207031 51.671875 15.714844 52.683594 15.714844 C 54.417969 15.714844 55.820312 17.121094 55.820312 18.859375 C 55.820312 19.28125 55.742188 19.683594 55.589844 20.042969 L 58.980469 21.941406 C 59.449219 21.328125 60.191406 20.929688 61.035156 20.929688 C 62.46875 20.929688 63.632812 22.09375 63.632812 23.527344 C 63.632812 24.28125 63.308594 24.964844 62.800781 25.4375 L 64.605469 28.097656 C 64.953125 27.929688 65.355469 27.828125 65.777344 27.828125 C 67.261719 27.828125 68.464844 29.035156 68.464844 30.519531 C 68.464844 32.007812 67.261719 33.210938 65.777344 33.210938 C 65.042969 33.210938 64.375 32.921875 63.890625 32.4375 L 60.964844 34.667969 C 61.054688 34.878906 61.105469 35.109375 61.105469 35.351562 C 61.105469 36.285156 60.351562 37.039062 59.421875 37.039062 C 59.308594 37.039062 59.199219 37.027344 59.101562 37.007812 L 57.464844 40.644531 C 58.15625 41.097656 58.617188 41.878906 58.617188 42.761719 C 58.617188 43.6875 58.117188 44.5 57.375 44.941406 L 58.167969 46.953125 C 58.429688 46.882812 58.6875 46.851562 58.96875 46.851562 C 59.492188 46.851562 59.992188 46.980469 60.421875 47.203125 L 63.230469 43.066406 C 62.378906 42.351562 61.835938 41.277344 61.835938 40.070312 Z M 19.753906 24.324219 L 19.742188 21.488281 C 20.816406 21.308594 21.628906 20.367188 21.628906 19.242188 C 21.628906 19 21.585938 18.757812 21.515625 18.539062 L 25.15625 16.628906 C 25.628906 17.28125 26.398438 17.703125 27.261719 17.703125 C 27.472656 17.703125 27.671875 17.683594 27.871094 17.632812 L 29.074219 20.605469 C 28.332031 21.046875 27.832031 21.863281 27.832031 22.796875 C 27.832031 23.921875 28.5625 24.875 29.578125 25.214844 L 29.035156 28.429688 C 28.964844 28.429688 28.894531 28.421875 28.816406 28.421875 C 26.828125 28.421875 25.226562 30.027344 25.226562 32.015625 C 25.226562 34.003906 26.828125 35.613281 28.816406 35.613281 C 30.699219 35.613281 32.242188 34.15625 32.394531 32.308594 L 34.46875 32.246094 C 34.640625 32.699219 35.070312 33.019531 35.582031 33.019531 C 35.941406 33.019531 36.261719 32.859375 36.484375 32.597656 L 39.199219 33.683594 C 39.171875 33.84375 39.152344 34.003906 39.152344 34.164062 C 39.152344 35.429688 40.183594 36.464844 41.445312 36.464844 C 42.710938 36.464844 43.742188 35.429688 43.742188 34.164062 C 43.742188 33.613281 43.542969 33.101562 43.21875 32.699219 L 46.097656 29.363281 C 46.597656 29.695312 47.199219 29.898438 47.84375 29.898438 C 49.578125 29.898438 50.980469 28.492188 50.980469 26.753906 C 50.980469 25.015625 49.578125 23.609375 47.84375 23.609375 C 47.191406 23.609375 46.578125 23.808594 46.078125 24.152344 L 43.933594 21.691406 C 44.042969 21.511719 44.101562 21.289062 44.101562 21.058594 C 44.101562 20.707031 43.953125 20.386719 43.710938 20.15625 L 45.144531 17.03125 C 45.335938 17.082031 45.535156 17.109375 45.738281 17.109375 C 46.4375 17.109375 47.070312 16.789062 47.480469 16.289062 L 49.777344 17.625 C 49.617188 18.003906 49.527344 18.417969 49.527344 18.859375 C 49.527344 20.597656 50.929688 22.003906 52.664062 22.003906 C 52.835938 22.003906 53.003906 21.992188 53.164062 21.960938 L 54.066406 25.085938 C 53.726562 25.316406 53.507812 25.699219 53.507812 26.140625 C 53.507812 26.652344 53.808594 27.085938 54.226562 27.296875 L 53.855469 29.96875 C 52.632812 30.007812 51.652344 31.011719 51.652344 32.246094 C 51.652344 32.386719 51.660156 32.527344 51.691406 32.667969 L 48.433594 33.875 C 48.214844 33.59375 47.871094 33.421875 47.492188 33.421875 C 46.820312 33.421875 46.277344 33.964844 46.277344 34.636719 C 46.277344 34.960938 46.398438 35.242188 46.597656 35.460938 L 44.945312 38.472656 C 44.773438 38.425781 44.59375 38.394531 44.414062 38.394531 C 43.390625 38.394531 42.570312 39.21875 42.570312 40.242188 C 42.570312 41.265625 43.390625 42.089844 44.414062 42.089844 C 45.4375 42.089844 46.257812 41.265625 46.257812 40.242188 L 50.828125 39.269531 C 50.941406 39.449219 51.082031 39.597656 51.261719 39.699219 L 49.917969 46.128906 C 49.808594 46.117188 49.6875 46.109375 49.566406 46.109375 C 48.5625 46.109375 47.652344 46.53125 47 47.203125 L 44.515625 45.292969 C 44.554688 45.171875 44.585938 45.03125 44.585938 44.902344 C 44.585938 44.230469 44.042969 43.6875 43.371094 43.6875 C 42.699219 43.6875 42.15625 44.230469 42.15625 44.902344 C 42.15625 45.023438 42.179688 45.132812 42.207031 45.242188 L 40.632812 46.339844 C 39.972656 45.574219 39 45.09375 37.917969 45.09375 C 35.933594 45.09375 34.328125 46.699219 34.328125 48.6875 C 34.328125 48.730469 34.328125 48.769531 34.328125 48.800781 L 31.640625 49.171875 C 31.492188 48.679688 31.171875 48.246094 30.757812 47.957031 L 33.625 42.140625 C 33.925781 42.242188 34.257812 42.300781 34.597656 42.300781 C 36.253906 42.300781 37.597656 40.957031 37.597656 39.296875 C 37.597656 37.640625 36.253906 36.304688 34.597656 36.304688 C 33.117188 36.304688 31.882812 37.390625 31.640625 38.816406 L 29.277344 38.734375 C 29.125 38.253906 28.683594 37.910156 28.164062 37.910156 C 27.523438 37.910156 26.992188 38.433594 26.992188 39.085938 C 26.992188 39.328125 27.0625 39.539062 27.179688 39.730469 L 25.285156 42.191406 C 24.804688 41.898438 24.242188 41.738281 23.652344 41.738281 C 21.886719 41.738281 20.453125 43.175781 20.453125 44.941406 C 20.453125 44.953125 20.453125 44.972656 20.453125 44.984375 L 18.257812 45.273438 C 18.019531 44.5 17.386719 43.886719 16.59375 43.6875 L 16.804688 41.117188 C 17.328125 40.984375 17.707031 40.511719 17.707031 39.960938 C 17.707031 39.730469 17.636719 39.507812 17.527344 39.328125 L 22.007812 33.804688 C 22.136719 33.855469 22.277344 33.875 22.417969 33.875 C 23.082031 33.875 23.613281 33.34375 23.613281 32.679688 C 23.613281 32.027344 23.082031 31.484375 22.417969 31.484375 C 22.359375 31.484375 22.296875 31.484375 22.25 31.492188 L 21.558594 30.148438 C 22.398438 29.574219 22.960938 28.601562 22.960938 27.496094 C 22.960938 25.730469 21.527344 24.292969 19.761719 24.292969 C 19.742188 24.292969 19.730469 24.292969 19.722656 24.292969 Z M 29.789062 28.5625 L 30.328125 25.347656 C 30.339844 25.347656 30.359375 25.347656 30.367188 25.347656 C 31.292969 25.347656 32.09375 24.855469 32.542969 24.121094 L 36.253906 25.660156 C 36.203125 25.871094 36.171875 26.082031 36.171875 26.3125 C 36.171875 27.777344 37.355469 28.964844 38.820312 28.964844 C 40.285156 28.964844 41.464844 27.777344 41.464844 26.3125 C 41.464844 25.597656 41.1875 24.957031 40.734375 24.472656 L 42.46875 22.234375 C 42.597656 22.285156 42.738281 22.304688 42.878906 22.304688 C 43.050781 22.304688 43.210938 22.273438 43.359375 22.203125 L 45.507812 24.664062 C 45.003906 25.214844 44.703125 25.960938 44.703125 26.761719 C 44.703125 27.578125 45.015625 28.308594 45.515625 28.871094 L 42.640625 32.207031 C 42.289062 31.996094 41.886719 31.875 41.445312 31.875 C 40.613281 31.875 39.890625 32.316406 39.480469 32.980469 L 36.765625 31.894531 C 36.765625 31.875 36.765625 31.855469 36.765625 31.835938 C 36.765625 31.171875 36.234375 30.640625 35.570312 30.640625 C 35.039062 30.640625 34.589844 30.992188 34.4375 31.484375 L 32.363281 31.542969 C 32.171875 30.109375 31.140625 28.953125 29.777344 28.5625 Z M 39.082031 17.632812 L 41.785156 20.484375 C 41.695312 20.65625 41.636719 20.859375 41.636719 21.070312 C 41.636719 21.320312 41.71875 21.558594 41.847656 21.761719 L 40.113281 24 C 39.730469 23.78125 39.28125 23.660156 38.808594 23.660156 C 37.847656 23.660156 37.003906 24.183594 36.542969 24.945312 L 32.835938 23.398438 C 32.886719 23.207031 32.90625 22.996094 32.90625 22.785156 C 32.90625 22.132812 32.65625 21.539062 32.253906 21.089844 L 34.980469 17.773438 C 35.542969 18.144531 36.203125 18.355469 36.925781 18.355469 C 37.738281 18.355469 38.480469 18.085938 39.082031 17.625 Z M 54.808594 24.894531 L 53.90625 21.761719 C 54.429688 21.539062 54.871094 21.179688 55.199219 20.726562 L 58.589844 22.625 C 58.476562 22.90625 58.417969 23.21875 58.417969 23.539062 C 58.417969 23.761719 58.449219 23.972656 58.5 24.183594 L 55.75 25.335938 C 55.519531 25.066406 55.191406 24.894531 54.808594 24.886719 Z M 48.652344 53.109375 L 48.121094 56.402344 C 47.421875 56.484375 46.871094 57.085938 46.871094 57.808594 C 46.871094 58.472656 47.320312 59.023438 47.933594 59.183594 L 47.984375 61.675781 C 47.960938 61.6875 47.933594 61.695312 47.914062 61.707031 L 46.15625 60.238281 C 46.238281 60.070312 46.277344 59.878906 46.277344 59.675781 C 46.277344 58.953125 45.726562 58.363281 45.023438 58.292969 L 44.722656 56.625 C 45.726562 56.28125 46.449219 55.328125 46.449219 54.214844 C 46.449219 53.75 46.328125 53.320312 46.109375 52.949219 L 47.082031 52.175781 C 47.511719 52.605469 48.050781 52.9375 48.664062 53.097656 Z M 17.628906 29.875 L 14.929688 33.625 C 14.710938 33.53125 14.46875 33.472656 14.21875 33.472656 C 13.234375 33.472656 12.433594 34.277344 12.433594 35.261719 C 12.433594 35.761719 12.644531 36.226562 12.984375 36.546875 L 10.167969 41.144531 C 9.816406 40.984375 9.425781 40.90625 9.015625 40.90625 C 8.984375 40.90625 8.964844 40.90625 8.9375 40.90625 L 8.714844 39.550781 C 9.789062 39.207031 10.558594 38.203125 10.558594 37.027344 C 10.558594 35.824219 9.757812 34.808594 8.65625 34.488281 L 8.816406 33.3125 C 8.867188 33.3125 8.914062 33.3125 8.976562 33.3125 C 11.109375 33.3125 12.84375 31.574219 12.84375 29.433594 C 12.84375 29.335938 12.84375 29.242188 12.835938 29.144531 L 16.734375 28.460938 C 16.90625 29.011719 17.214844 29.503906 17.628906 29.886719 Z M 20.554688 37.691406 C 20.554688 36.4375 21.578125 35.410156 22.828125 35.410156 C 24.082031 35.410156 25.105469 36.4375 25.105469 37.691406 C 25.105469 38.945312 24.082031 39.972656 22.828125 39.972656 C 21.578125 39.972656 20.554688 38.945312 20.554688 37.691406 Z M 22.992188 22.394531 C 22.992188 21.730469 23.523438 21.199219 24.183594 21.199219 C 24.84375 21.199219 25.375 21.730469 25.375 22.394531 C 25.375 23.046875 24.84375 23.589844 24.183594 23.589844 C 23.53125 23.589844 22.992188 23.058594 22.992188 22.394531 Z M 22.992188 22.394531 " clip-rule="evenodd"/></clipPath><linearGradient x1="39.985145" gradientTransform="matrix(1.002487, 0, 0, 1.004392, 5.106073, 11.255477)" y1="-0.154475" x2="39.673595" gradientUnits="userSpaceOnUse" y2="52.365343" xlink:type="simple" xlink:actuate="onLoad" id="id3" xlink:show="other"><stop stop-opacity="1" stop-color="rgb(54.899597%, 32.199097%, 100%)" offset="0"/><stop stop-opacity="1" stop-color="rgb(54.899597%, 32.199097%, 100%)" offset="0.00726688"/><stop stop-opacity="1" stop-color="rgb(54.899597%, 32.199097%, 100%)" offset="0.0625"/><stop stop-opacity="1" stop-color="rgb(54.899597%, 32.199097%, 100%)" offset="0.09375"/><stop stop-opacity="1" stop-color="rgb(54.899597%, 32.199097%, 100%)" offset="0.109375"/><stop stop-opacity="1" stop-color="rgb(54.812622%, 32.301331%, 100%)" offset="0.117188"/><stop stop-opacity="1" stop-color="rgb(54.573059%, 32.588196%, 100%)" offset="0.125"/><stop stop-opacity="1" stop-color="rgb(54.264832%, 32.955933%, 100%)" offset="0.132813"/><stop stop-opacity="1" stop-color="rgb(53.956604%, 33.322144%, 100%)" offset="0.140625"/><stop stop-opacity="1" stop-color="rgb(53.648376%, 33.68988%, 100%)" offset="0.148438"/><stop stop-opacity="1" stop-color="rgb(53.340149%, 34.056091%, 100%)" offset="0.15625"/><stop stop-opacity="1" stop-color="rgb(53.031921%, 34.422302%, 100%)" offset="0.164063"/><stop stop-opacity="1" stop-color="rgb(52.723694%, 34.790039%, 100%)" offset="0.171875"/><stop stop-opacity="1" stop-color="rgb(52.416992%, 35.15625%, 100%)" offset="0.179688"/><stop stop-opacity="1" stop-color="rgb(52.108765%, 35.523987%, 100%)" offset="0.1875"/><stop stop-opacity="1" stop-color="rgb(51.800537%, 35.890198%, 100%)" offset="0.195313"/><stop stop-opacity="1" stop-color="rgb(51.49231%, 36.257935%, 100%)" offset="0.203125"/><stop stop-opacity="1" stop-color="rgb(51.184082%, 36.624146%, 100%)" offset="0.210938"/><stop stop-opacity="1" stop-color="rgb(50.875854%, 36.991882%, 100%)" offset="0.21875"/><stop stop-opacity="1" stop-color="rgb(50.569153%, 37.358093%, 100%)" offset="0.226563"/><stop stop-opacity="1" stop-color="rgb(50.260925%, 37.72583%, 100%)" offset="0.234375"/><stop stop-opacity="1" stop-color="rgb(49.952698%, 38.092041%, 100%)" offset="0.242188"/><stop stop-opacity="1" stop-color="rgb(49.64447%, 38.459778%, 100%)" offset="0.25"/><stop stop-opacity="1" stop-color="rgb(49.336243%, 38.825989%, 100%)" offset="0.257813"/><stop stop-opacity="1" stop-color="rgb(49.028015%, 39.193726%, 100%)" offset="0.265625"/><stop stop-opacity="1" stop-color="rgb(48.719788%, 39.559937%, 100%)" offset="0.273438"/><stop stop-opacity="1" stop-color="rgb(48.413086%, 39.927673%, 100%)" offset="0.28125"/><stop stop-opacity="1" stop-color="rgb(48.104858%, 40.293884%, 100%)" offset="0.289062"/><stop stop-opacity="1" stop-color="rgb(47.796631%, 40.661621%, 100%)" offset="0.296875"/><stop stop-opacity="1" stop-color="rgb(47.488403%, 41.027832%, 100%)" offset="0.304688"/><stop stop-opacity="1" stop-color="rgb(47.180176%, 41.395569%, 100%)" offset="0.3125"/><stop stop-opacity="1" stop-color="rgb(46.871948%, 41.76178%, 100%)" offset="0.320312"/><stop stop-opacity="1" stop-color="rgb(46.565247%, 42.129517%, 100%)" offset="0.328125"/><stop stop-opacity="1" stop-color="rgb(46.257019%, 42.495728%, 100%)" offset="0.335938"/><stop stop-opacity="1" stop-color="rgb(45.948792%, 42.863464%, 100%)" offset="0.34375"/><stop stop-opacity="1" stop-color="rgb(45.640564%, 43.229675%, 100%)" offset="0.351562"/><stop stop-opacity="1" stop-color="rgb(45.332336%, 43.597412%, 100%)" offset="0.359375"/><stop stop-opacity="1" stop-color="rgb(45.024109%, 43.963623%, 100%)" offset="0.367188"/><stop stop-opacity="1" stop-color="rgb(44.715881%, 44.33136%, 100%)" offset="0.375"/><stop stop-opacity="1" stop-color="rgb(44.40918%, 44.697571%, 100%)" offset="0.382813"/><stop stop-opacity="1" stop-color="rgb(44.100952%, 45.065308%, 100%)" offset="0.390625"/><stop stop-opacity="1" stop-color="rgb(43.792725%, 45.431519%, 100%)" offset="0.398438"/><stop stop-opacity="1" stop-color="rgb(43.484497%, 45.799255%, 100%)" offset="0.40625"/><stop stop-opacity="1" stop-color="rgb(43.17627%, 46.165466%, 100%)" offset="0.414062"/><stop stop-opacity="1" stop-color="rgb(42.868042%, 46.533203%, 100%)" offset="0.421875"/><stop stop-opacity="1" stop-color="rgb(42.56134%, 46.899414%, 100%)" offset="0.429688"/><stop stop-opacity="1" stop-color="rgb(42.253113%, 47.267151%, 100%)" offset="0.4375"/><stop stop-opacity="1" stop-color="rgb(41.944885%, 47.633362%, 100%)" offset="0.445312"/><stop stop-opacity="1" stop-color="rgb(41.636658%, 48.001099%, 100%)" offset="0.453125"/><stop stop-opacity="1" stop-color="rgb(41.32843%, 48.36731%, 100%)" offset="0.460938"/><stop stop-opacity="1" stop-color="rgb(41.020203%, 48.735046%, 100%)" offset="0.46875"/><stop stop-opacity="1" stop-color="rgb(40.713501%, 49.101257%, 100%)" offset="0.476562"/><stop stop-opacity="1" stop-color="rgb(40.405273%, 49.468994%, 100%)" offset="0.484375"/><stop stop-opacity="1" stop-color="rgb(40.097046%, 49.835205%, 100%)" offset="0.492188"/><stop stop-opacity="1" stop-color="rgb(39.788818%, 50.202942%, 100%)" offset="0.5"/><stop stop-opacity="1" stop-color="rgb(39.480591%, 50.569153%, 100%)" offset="0.507812"/><stop stop-opacity="1" stop-color="rgb(39.172363%, 50.93689%, 100%)" offset="0.515625"/><stop stop-opacity="1" stop-color="rgb(38.864136%, 51.303101%, 100%)" offset="0.523438"/><stop stop-opacity="1" stop-color="rgb(38.557434%, 51.670837%, 100%)" offset="0.53125"/><stop stop-opacity="1" stop-color="rgb(38.249207%, 52.037048%, 100%)" offset="0.539063"/><stop stop-opacity="1" stop-color="rgb(37.940979%, 52.404785%, 100%)" offset="0.546875"/><stop stop-opacity="1" stop-color="rgb(37.632751%, 52.770996%, 100%)" offset="0.554688"/><stop stop-opacity="1" stop-color="rgb(37.324524%, 53.138733%, 100%)" offset="0.5625"/><stop stop-opacity="1" stop-color="rgb(37.016296%, 53.504944%, 100%)" offset="0.570313"/><stop stop-opacity="1" stop-color="rgb(36.709595%, 53.872681%, 100%)" offset="0.578125"/><stop stop-opacity="1" stop-color="rgb(36.401367%, 54.238892%, 100%)" offset="0.585938"/><stop stop-opacity="1" stop-color="rgb(36.09314%, 54.606628%, 100%)" offset="0.59375"/><stop stop-opacity="1" stop-color="rgb(35.784912%, 54.972839%, 100%)" offset="0.601563"/><stop stop-opacity="1" stop-color="rgb(35.476685%, 55.340576%, 100%)" offset="0.609375"/><stop stop-opacity="1" stop-color="rgb(35.168457%, 55.706787%, 100%)" offset="0.617188"/><stop stop-opacity="1" stop-color="rgb(34.860229%, 56.074524%, 100%)" offset="0.625"/><stop stop-opacity="1" stop-color="rgb(34.553528%, 56.440735%, 100%)" offset="0.632812"/><stop stop-opacity="1" stop-color="rgb(34.2453%, 56.808472%, 100%)" offset="0.640625"/><stop stop-opacity="1" stop-color="rgb(33.937073%, 57.174683%, 100%)" offset="0.648438"/><stop stop-opacity="1" stop-color="rgb(33.628845%, 57.542419%, 100%)" offset="0.65625"/><stop stop-opacity="1" stop-color="rgb(33.320618%, 57.90863%, 100%)" offset="0.664063"/><stop stop-opacity="1" stop-color="rgb(33.01239%, 58.276367%, 100%)" offset="0.671875"/><stop stop-opacity="1" stop-color="rgb(32.705688%, 58.642578%, 100%)" offset="0.679688"/><stop stop-opacity="1" stop-color="rgb(32.397461%, 59.010315%, 100%)" offset="0.6875"/><stop stop-opacity="1" stop-color="rgb(32.089233%, 59.376526%, 100%)" offset="0.695313"/><stop stop-opacity="1" stop-color="rgb(31.781006%, 59.744263%, 100%)" offset="0.703125"/><stop stop-opacity="1" stop-color="rgb(31.472778%, 60.110474%, 100%)" offset="0.710938"/><stop stop-opacity="1" stop-color="rgb(31.164551%, 60.47821%, 100%)" offset="0.71875"/><stop stop-opacity="1" stop-color="rgb(30.856323%, 60.844421%, 100%)" offset="0.726563"/><stop stop-opacity="1" stop-color="rgb(30.549622%, 61.212158%, 100%)" offset="0.734375"/><stop stop-opacity="1" stop-color="rgb(30.241394%, 61.578369%, 100%)" offset="0.742188"/><stop stop-opacity="1" stop-color="rgb(29.933167%, 61.946106%, 100%)" offset="0.75"/><stop stop-opacity="1" stop-color="rgb(29.624939%, 62.312317%, 100%)" offset="0.757813"/><stop stop-opacity="1" stop-color="rgb(29.316711%, 62.680054%, 100%)" offset="0.765625"/><stop stop-opacity="1" stop-color="rgb(29.008484%, 63.046265%, 100%)" offset="0.773438"/><stop stop-opacity="1" stop-color="rgb(28.701782%, 63.414001%, 100%)" offset="0.78125"/><stop stop-opacity="1" stop-color="rgb(28.393555%, 63.780212%, 100%)" offset="0.789063"/><stop stop-opacity="1" stop-color="rgb(28.085327%, 64.147949%, 100%)" offset="0.796875"/><stop stop-opacity="1" stop-color="rgb(27.7771%, 64.51416%, 100%)" offset="0.804688"/><stop stop-opacity="1" stop-color="rgb(27.468872%, 64.881897%, 100%)" offset="0.8125"/><stop stop-opacity="1" stop-color="rgb(27.160645%, 65.248108%, 100%)" offset="0.820313"/><stop stop-opacity="1" stop-color="rgb(26.852417%, 65.615845%, 100%)" offset="0.828125"/><stop stop-opacity="1" stop-color="rgb(26.545715%, 65.982056%, 100%)" offset="0.835937"/><stop stop-opacity="1" stop-color="rgb(26.237488%, 66.349792%, 100%)" offset="0.84375"/><stop stop-opacity="1" stop-color="rgb(25.92926%, 66.716003%, 100%)" offset="0.851562"/><stop stop-opacity="1" stop-color="rgb(25.621033%, 67.08374%, 100%)" offset="0.859375"/><stop stop-opacity="1" stop-color="rgb(25.312805%, 67.449951%, 100%)" offset="0.867188"/><stop stop-opacity="1" stop-color="rgb(25.004578%, 67.817688%, 100%)" offset="0.875"/><stop stop-opacity="1" stop-color="rgb(24.697876%, 68.183899%, 100%)" offset="0.882812"/><stop stop-opacity="1" stop-color="rgb(24.389648%, 68.551636%, 100%)" offset="0.890625"/><stop stop-opacity="1" stop-color="rgb(24.081421%, 68.917847%, 100%)" offset="0.898438"/><stop stop-opacity="1" stop-color="rgb(23.773193%, 69.285583%, 100%)" offset="0.90625"/><stop stop-opacity="1" stop-color="rgb(23.464966%, 69.651794%, 100%)" offset="0.914063"/><stop stop-opacity="1" stop-color="rgb(23.156738%, 70.019531%, 100%)" offset="0.921875"/><stop stop-opacity="1" stop-color="rgb(22.850037%, 70.385742%, 100%)" offset="0.929688"/><stop stop-opacity="1" stop-color="rgb(22.541809%, 70.753479%, 100%)" offset="0.9375"/><stop stop-opacity="1" stop-color="rgb(22.233582%, 71.11969%, 100%)" offset="0.945313"/><stop stop-opacity="1" stop-color="rgb(22.038269%, 71.351624%, 100%)" offset="0.953125"/><stop stop-opacity="1" stop-color="rgb(21.998596%, 71.398926%, 100%)" offset="0.96875"/><stop stop-opacity="1" stop-color="rgb(21.998596%, 71.398926%, 100%)" offset="0.992733"/><stop stop-opacity="1" stop-color="rgb(21.998596%, 71.398926%, 100%)" offset="1"/></linearGradient></defs><g clip-path="url(#id1)"><g clip-path="url(#id2)"><path fill="url(#id3)" d="M 5.105469 11.246094 L 5.105469 63.613281 L 69.605469 63.613281 L 69.605469 11.246094 Z M 5.105469 11.246094 " fill-rule="nonzero"/></g></g></svg>